<svg width="24.000000" height="24.000000" viewBox="0 0 24 24" fill="none" xmlns="http://www.w3.org/2000/svg" xmlns:xlink="http://www.w3.org/1999/xlink">
	<desc>
			Created with Pixso.
	</desc>
	<defs>
		<clipPath id="clip2_15">
			<rect id="phone" width="24.000000" height="24.000000" fill="white" fill-opacity="0"/>
		</clipPath>
	</defs>
	<rect id="phone" width="24.000000" height="24.000000" fill="#FFFFFF" fill-opacity="0"/>
	<g clip-path="url(#clip2_15)">
		<path id="矢量 72" d="M6.62 10.79C8.06 13.62 10.38 15.93 13.21 17.37L15.41 15.18C15.68 14.91 16.08 14.82 16.43 14.94C17.54 15.31 18.76 15.51 20 15.51C20.55 15.51 21 15.96 21 16.51L21 20C21 20.55 20.55 21 20 21C10.61 21 3 13.39 3 4C3 3.45 3.45 3 4 3L7.5 3C8.04 3 8.5 3.45 8.5 4C8.5 5.25 8.7 6.45 9.07 7.57C9.17 7.92 9.1 8.31 8.82 8.59L6.62 10.79Z" fill="#000000" fill-opacity="1.000000" fill-rule="evenodd"/>
	</g>
</svg>
